<?xml version="1.0" encoding="utf-8"?>
<!-- Svg Vector Icons : http://www.onlinewebfonts.com/icon -->
<!DOCTYPE svg PUBLIC "-//W3C//DTD SVG 1.1//EN" "http://www.w3.org/Graphics/SVG/1.1/DTD/svg11.dtd">
<svg version="1.1" xmlns="http://www.w3.org/2000/svg" xmlns:xlink="http://www.w3.org/1999/xlink" x="0px" y="0px" viewBox="0 0 1000 1000" enable-background="new 0 0 1000 1000" xml:space="preserve">
<metadata> Svg Vector Icons : http://www.onlinewebfonts.com/icon </metadata>
<g><g transform="translate(0.000000,512.000000) scale(0.100000,-0.100000)"><path d="M4220.2,5093c-169.6-21.5-438.6-97.5-621.8-173.5c-483.4-200.8-982.4-701.7-1181.3-1185.2c-35.1-81.9-72.1-159.8-83.8-173.5c-35.1-33.1-325.5-118.9-528.3-155.9c-230-40.9-658.9-40.9-924,2c-171.5,27.3-208.6,27.3-263.2,3.9c-132.6-54.6-181.3-183.2-120.9-311.9c40.9-87.7,72.1-105.3,935.7-557.5c354.8-185.2,682.3-358.7,727.1-384l85.8-48.7l-341.1-345c-335.3-337.2-382.1-401.6-356.7-485.4c23.4-72.1,91.6-81.9,606.2-81.9H2651l1.9-42.9c23.4-354.8-163.7-746.6-588.7-1243.7c-85.8-101.4-348.9-386-582.8-633.5c-674.5-709.5-853.8-937.6-1048.7-1325.5c-428.8-859.6-444.4-1822.6-39-2656.9l78-159.8l4545.7,3.9l4543.8,5.8l83.8,165.7c222.2,444.4,302.1,941.5,228.1,1432.7c-52.6,345-128.6,578.9-323.6,1003.9c-138.4,302.1-171.6,424.9-187.1,676.4c-19.5,350.9,29.2,555.5,269,1120.8C9812.7-31.7,9834.1,67.8,9760,155.5c-46.8,52.6-60.4,56.5-214.4,62.4C9140.2,235.4,8457.9-2.4,7426.7-522.9c-282.6-142.3-577-276.8-682.2-309.9c-448.3-144.3-809-72.1-937.6,191c-39,76-46.8,120.9-44.8,249.5c3.9,208.6,50.7,325.5,298.2,738.8c538,900.6,729,1532.1,731,2409.3c0,319.7-5.9,409.4-40.9,557.5c-210.5,896.7-894.7,1567.2-1789.4,1752.4C4769.9,5104.7,4403.4,5118.4,4220.2,5093z M3941.4,3726.6c155.9-109.2,146.2-350.9-15.6-456.1c-31.2-21.5-89.7-35.1-144.2-35.1c-107.2,0-179.3,40.9-233.9,130.6c-93.6,150.1-5.8,364.5,165.7,409.4C3775.7,3790.9,3882.9,3769.5,3941.4,3726.6z M8124.6-1719.7c29.2-33.1,42.9-74.1,42.9-124.8c0-64.3-11.7-85.8-91.6-155.9c-327.5-288.5-879.1-561.4-1399.6-692c-426.9-109.2-645.2-132.5-1175.4-134.5l-475.6-1.9l-46.8,54.6c-50.7,60.4-62.4,175.4-21.4,230c50.7,68.2,105.3,76,471.7,76c411.3,0,637.4,21.5,976.6,87.7c463.9,93.6,949.3,302.1,1294.3,555.5c101.4,76,202.7,146.2,224.2,155.9C7984.2-1639.8,8073.9-1663.2,8124.6-1719.7z"/></g></g>
</svg>